<svg width="512" height="512" viewBox="0 0 512 512" fill="none" xmlns="http://www.w3.org/2000/svg">
<rect width="512" height="512" fill="#1E1E1E"/>
<rect width="512" height="512" fill="white"/>
<path d="M312.453 417.56C294.247 417.56 276.912 414.347 260.446 407.921C243.98 401.362 229.389 391.723 216.671 379.006C204.088 366.288 194.115 350.559 186.752 331.818C179.523 313.076 175.909 291.457 175.909 266.959C175.909 234.965 182 207.789 194.182 185.434C206.497 162.944 222.963 145.809 243.579 134.028C264.328 122.248 287.286 116.358 312.453 116.358C349.669 116.358 378.919 124.992 400.204 142.261C421.488 159.53 435.745 183.961 442.974 215.554L387.151 223.586C381.931 206.718 373.363 193.265 361.449 183.225C349.669 173.051 334.542 167.897 316.068 167.763C297.728 167.495 282.467 171.444 270.285 179.61C258.103 187.776 248.933 199.356 242.775 214.349C236.751 229.342 233.739 246.879 233.739 266.959C233.739 287.039 236.751 304.442 242.775 319.167C248.933 333.892 258.103 345.338 270.285 353.504C282.467 361.67 297.728 365.887 316.068 366.155C328.518 366.422 339.762 364.28 349.802 359.729C359.976 355.177 368.544 348.016 375.505 338.243C382.466 328.471 387.419 315.954 390.364 300.693H344.582V258.525H448.597C448.864 260.265 449.065 263.344 449.199 267.762C449.333 272.18 449.4 274.723 449.4 275.392C449.4 303.103 443.777 327.668 432.533 349.086C421.288 370.505 405.424 387.306 384.943 399.488C364.461 411.536 340.298 417.56 312.453 417.56Z" fill="#2563EB"/>
<path d="M198.545 396.202C180.339 396.202 163.003 392.989 146.537 386.563C130.072 380.004 115.48 370.365 102.763 357.648C90.1791 344.93 80.206 329.201 72.8433 310.46C65.6144 291.718 62 270.099 62 245.601C62 213.607 68.091 186.431 80.2729 164.076C92.5887 141.586 109.054 124.451 129.67 112.67C150.419 100.89 173.378 95 198.545 95C235.76 95 265.01 103.634 286.295 120.903C307.58 138.172 321.837 162.603 329.065 194.196L273.243 202.228C268.022 185.36 259.454 171.907 247.54 161.867C235.76 151.693 220.633 146.539 202.159 146.405C183.819 146.137 168.558 150.086 156.377 158.252C144.195 166.418 135.025 177.998 128.867 192.991C122.843 207.984 119.831 225.521 119.831 245.601C119.831 265.681 122.843 283.084 128.867 297.809C135.025 312.535 144.195 323.98 156.377 332.146C168.558 340.312 183.819 344.529 202.159 344.797C214.609 345.064 225.854 342.922 235.894 338.371C246.068 333.819 254.635 326.658 261.596 316.885C268.557 307.113 273.511 294.596 276.456 279.335H230.673V237.167H334.688C334.956 238.907 335.156 241.986 335.29 246.404C335.424 250.822 335.491 253.365 335.491 254.034C335.491 281.745 329.869 306.31 318.624 327.728C307.379 349.147 291.516 365.948 271.034 378.13C250.552 390.178 226.389 396.202 198.545 396.202Z" fill="#07111F"/>
</svg>
